<?xml version="1.0" encoding="utf-8"?>
<!-- Generator: Adobe Illustrator 23.0.1, SVG Export Plug-In . SVG Version: 6.00 Build 0)  -->
<svg version="1.1" id="Calque_1" xmlns="http://www.w3.org/2000/svg" xmlns:xlink="http://www.w3.org/1999/xlink" x="0px" y="0px"
	 viewBox="0 0 636.5 107.3" style="enable-background:new 0 0 636.5 107.3;" xml:space="preserve">
<style type="text/css">
	.st0{fill:#AA8C4C;}
</style>
<g>
	<g>
		<path class="st0" d="M66.8,31c0.1-2.2-0.1-4.4-0.6-6.5c-0.4-2.1-1.2-4.1-2.3-5.8c-1.1-1.7-2.6-3.1-4.4-4.1c-1.8-1-4-1.6-6.6-1.6
			c-4.2,0-8.1,1-11.7,2.9c-3.5,1.9-6.8,4.5-9.7,7.6c-2.9,3.2-5.5,6.8-7.7,11c-2.2,4.1-4.2,8.4-5.7,12.9c-1.6,4.5-2.8,8.9-3.7,13.3
			c-0.9,4.4-1.3,8.5-1.5,12.3c-0.1,4,0.3,7.9,1.2,11.4c0.9,3.6,2.3,6.7,4.1,9.3c1.8,2.7,4,4.7,6.5,6.3c2.6,1.5,5.4,2.3,8.6,2.3
			c2.5,0,4.9-0.5,7.2-1.6c2.3-1.1,4.4-2.5,6.3-4.2c1.9-1.7,3.7-3.7,5.2-5.8c1.5-2.2,2.9-4.3,3.9-6.4c0.4-0.8,0.5-1.5,0.4-2.1
			c-0.1-0.6-0.4-1-0.8-1.3s-0.8-0.3-1.3-0.1c-0.5,0.2-1,0.7-1.4,1.5c-0.6,1.1-1.5,2.5-2.7,3.9c-1.2,1.5-2.6,2.9-4.2,4.3
			c-1.6,1.4-3.4,2.6-5.4,3.5c-2,0.9-4,1.4-6.3,1.4c-1.4,0-2.8-0.3-4.2-1c-1.4-0.7-2.6-1.8-3.7-3.4c-1.1-1.6-2-3.6-2.6-6.1
			c-0.6-2.5-0.8-5.5-0.7-9c0.3-7.8,1.4-15.3,3.4-22.3c1.9-7,4.3-13.2,7.1-18.4c2.8-5.3,5.9-9.5,9.2-12.6c3.3-3.1,6.4-4.6,9.4-4.6
			c1.5,0,2.9,0.6,4.1,1.8c1.2,1.2,1.7,3.1,1.6,5.7c-0.2,2.7-0.6,5.1-1.1,7.2c-0.5,1.9-1.2,3.7-2.2,5.5c-1,1.7-2.3,3-4,3.7
			c0.6,1.5,1.2,2.6,1.8,3.3c0.7,0.8,1.3,1.3,1.9,1.7c0.7,0.4,1.4,0.7,2.2,0.8c1.6,0,3-0.5,4.2-1.4c1.2-0.9,2.3-2.1,3.1-3.7
			c0.9-1.5,1.5-3.3,2-5.3C66.4,35.1,66.7,33.1,66.8,31z"/>
		<path class="st0" d="M175.6,20.8c0-0.9-0.1-1.6-0.5-1.9c-0.1-0.3-0.4-0.5-0.9-0.6c-0.4-0.1-0.9-0.1-1.4-0.1
			c-0.6,0-1.2,0.1-1.9,0.2c-0.7,0.1-1.4,0.3-2.1,0.5c-0.6,0.1-1.2,0.3-1.8,0.5c-0.6,0.2-1.2,0.4-1.7,0.8c0.2,0.9,0.3,1.9,0.3,2.9
			c0,1.1-0.1,2.1-0.2,3.1c-0.1,1.1-0.3,2.3-0.5,3.5c-0.4,1.7-1.1,4.8-2.1,9.2c-0.9,3.7-2.2,9.1-3.8,16.2c-0.7,2.8-1.4,6-2.2,9.5
			c-0.8,1.1-1.8,2.3-2.8,3.6c-1.1,1.4-2.2,2.8-3.5,4.3c-1.2,1.5-2.4,2.8-3.6,4.1c-1.1,1.2-2.2,2.2-3.2,3c-1,0.8-1.8,1.2-2.5,1.2
			c-0.8,0-1.3-0.2-1.8-0.5c-0.4-0.3-0.7-0.8-0.9-1.4s-0.3-1.2-0.3-1.8c0-0.7,0-1.3,0-1.8c0.2-0.9,0.3-1.7,0.5-2.4
			c0.1-0.6,0.2-1.2,0.3-1.7s0.2-0.9,0.3-1.4c0.1-0.5,0.2-1,0.3-1.6c0.6-2.9,1.1-5.3,1.5-7.1c0.4-1.8,0.7-3.3,0.9-4.4
			c0.2-1.1,0.3-1.8,0.3-2.2c0-0.4,0-0.7-0.1-0.8c-0.1-0.1-0.4-0.1-0.8-0.1c-0.3,0-0.8,0-1.4,0.1c-0.6,0.1-1.3,0.2-2.2,0.4
			c1.3-2,1.8-3.7,1.6-4.9c-0.3-1.2-0.9-2.2-1.8-2.8c-1.1-0.7-2.5-1.2-4.2-1.5c-1.5-0.1-3.3,0.4-5.5,1.5c-2.2,1.1-4.5,2.8-6.7,5.1
			c-2.3,2.2-4.4,4.9-6.3,8.1c-1.6,2.6-2.8,5.6-3.7,8.7c-0.2,0.2-0.3,0.4-0.5,0.6c-0.9,1-1.8,1.9-2.8,2.9c-0.9,0.9-1.8,1.7-2.6,2.4
			c-3.4,2.7-5.9,4.3-7.5,4.9c-1.7,0.5-2.8,0.3-3.4-0.7c-0.4-0.8-0.5-1.6-0.2-2.7c0.3-1,0.8-2.2,1.3-3.7c0.8-2.1,1.5-3.9,2.1-5.5
			c0.6-1.6,1.1-3,1.5-4.3c0.4-1.3,0.7-2.5,0.9-3.6c0.2-1.1,0.3-2.1,0.3-3.1c0.1-1.6-0.1-3-0.4-4.1c-0.3-1.1-0.8-2-1.4-2.7
			c-0.6-0.7-1.3-1.1-2.1-1.4c-0.8-0.3-1.6-0.4-2.5-0.4c-1.7,0-3.3,0.4-4.8,1.1c-1.5,0.7-3,1.6-4.3,2.8c-1.4,1.1-2.6,2.3-3.7,3.7
			s-2.1,2.6-2.9,3.9c1.4-5.5,2.9-10.7,4.6-15.5c1.6-4.8,3.1-9.8,4.5-14.9c0.3-1.4,0.6-2.7,0.9-3.9c0.1-1,0.2-2,0.2-2.9
			c0-0.9-0.1-1.6-0.5-1.9c-0.1-0.3-0.4-0.5-0.9-0.6c-0.4-0.1-0.9-0.1-1.4-0.1c-0.6,0-1.2,0.1-1.9,0.2c-0.7,0.1-1.4,0.3-2.1,0.5
			c-0.6,0.1-1.2,0.3-1.8,0.5c-0.6,0.2-1.2,0.4-1.7,0.8c0.2,0.9,0.3,1.9,0.3,2.9c0,1.1-0.1,2.1-0.2,3.1c-0.1,1.1-0.3,2.3-0.5,3.5
			c-0.4,1.7-1.1,4.8-2.1,9.2c-0.9,3.7-2.2,9.1-3.8,16.2c-1.6,7.1-3.9,16.5-6.7,28.2c0.2,0.7,0.5,1.2,0.9,1.7s0.8,0.7,1.1,1
			c0.4,0.3,0.9,0.4,1.4,0.6c0.4,0.1,0.9,0.1,1.3,0.1c0.4,0,0.8-0.1,1.2-0.2c0.4-0.1,0.9-0.3,1.2-0.7c0.4-1.8,0.9-3.9,1.4-6.3
			c0.5-2.4,0.9-4.6,1.4-6.6c0.5-2.4,1-4.8,1.5-7.3c0.8-1.3,1.8-2.7,2.8-4.1c1.1-1.4,2.2-2.6,3.4-3.7c1.2-1.1,2.3-2,3.5-2.7
			c1.2-0.7,2.3-1,3.3-1c1.5,0,2.3,0.7,2.5,2.1s0,3.1-0.4,5.2c-0.5,2-1.1,4.1-1.9,6.3c-0.8,2.2-1.4,4.1-1.8,5.6
			c-0.7,2.5-1.1,4.6-1.1,6.3c0,1.7,0.5,3.2,1.7,4.7c1.3,1.6,2.5,2.5,3.8,2.5c1.3,0,2.9-0.5,4.8-1.6c1.7-0.9,3.5-2.1,5.3-3.6
			c1.8-1.5,3.7-3,5.5-4.6c0.7-0.6,1.4-1.3,2-1.9c-0.1,0.9-0.1,1.8,0,2.6c0.2,2.1,0.6,3.7,1.3,5c0.7,1.3,1.5,2.2,2.6,2.8
			c1,0.6,2,0.9,2.8,0.9c1.9-0.1,3.8-0.5,5.7-1.2c1.6-0.6,3.4-1.6,5.2-3c1.8-1.4,3.5-3.3,5-5.8c-0.1,1.7,0,3.1,0.3,4.3
			s0.6,2.1,0.9,2.8c0.4,0.8,0.9,1.5,1.4,1.9c0.6,0.4,1.2,0.6,2,0.8c0.8,0.2,1.6,0.2,2.4,0.1c0.9-0.1,1.7-0.2,2.5-0.5
			c0.8-0.3,1.5-0.6,2.2-0.9c0.9-0.6,2.1-1.7,3.6-3.3c1.4-1.5,2.9-3.3,4.4-5.1c0.8-1,1.6-2,2.3-3c-0.7,3.1-1.5,6.5-2.4,10.1
			c0.2,0.7,0.5,1.2,0.9,1.7c0.4,0.4,0.8,0.7,1.1,1c0.4,0.3,0.9,0.4,1.3,0.6c0.5,0.1,1,0.1,1.4,0.1c0.4,0,0.8-0.1,1.2-0.2
			c0.4-0.1,0.8-0.3,1.1-0.7c2.9-11.4,5.3-20.9,7.3-28.5c1.9-7.5,3.5-13.5,4.6-17.8c1.3-5.1,2.4-9,3.1-11.8c0.3-1.4,0.6-2.7,0.9-3.9
			C175.5,22.7,175.6,21.7,175.6,20.8z M135.4,56.7c-0.2,1-0.4,2.4-0.7,3.9c-0.3,1.6-0.7,3.2-1.1,4.9c-0.4,1.7-0.8,3.2-1.1,4.5
			c-0.1,0.3-0.3,0.8-0.8,1.5c-0.5,0.7-1.1,1.5-1.8,2.3c-0.7,0.8-1.5,1.6-2.5,2.4c-0.9,0.8-1.8,1.4-2.8,1.8c-0.9,0.5-1.8,0.7-2.7,0.8
			c-0.9,0-1.7-0.3-2.4-1c-0.4-0.4-0.6-1.2-0.8-2.4c-0.1-1.2-0.1-2.7,0.1-4.3c0.2-1.6,0.6-3.4,1.2-5.3c0.6-1.9,1.3-3.6,2.3-5.3
			c2.3-4,4.3-6.7,6-8.2c1.7-1.5,3-1.9,3.7-1.4c0.2,0.3,0.3,0.6,0.4,1c0.1,0.4,0,0.9,0,1.6c-0.1,0.7-0.4,1.5-0.9,2.5
			c0.5-0.1,1-0.2,1.5-0.3c0.5-0.1,0.9-0.2,1.2-0.3c0.4-0.1,0.7-0.2,1-0.3C135.5,55.1,135.6,55.6,135.4,56.7z"/>
		<path class="st0" d="M265.9,68.6c-0.5-1.2-1.1-2.4-1.7-3.6c-0.6-1.2-1.2-2.4-1.8-3.5c-0.4-0.9-0.9-1.9-1.2-2.9
			c-0.3-0.9-0.6-1.9-1-3.1c-0.3-1.2-0.6-2.5-0.8-4c0.9-1.1,1.7-2.1,2.2-2.8c0.5-0.7,0.9-1.3,1.1-1.8c0.3-0.5,0.4-0.9,0.6-1.2
			c0.1-0.6-0.1-1.2-0.6-1.8c-0.5-0.6-1.2-1.2-2-1.7c-1-0.5-2.2-0.5-3.4,0c-1.3,0.5-2.5,1.2-3.7,2.1c-1.2,0.9-2.2,2-3.1,3.2
			c-0.9,1.2-1.5,2.2-1.7,3.1c-0.3,1.1-0.2,2,0.2,2.8c0.5,0.8,0.6,1.5,0.5,2c-0.1,0.2-0.4,0.7-1,1.7c-0.6,0.9-1.3,2-2.1,3.1
			c-0.8,1.2-1.5,2.3-2.3,3.4c-0.1,0.2-0.2,0.3-0.3,0.5c-0.8,1.1-1.8,2.2-2.8,3.5c-1.3,1.5-2.6,3.1-4.1,4.6c-1.5,1.6-3,3-4.4,4.4
			c-1.5,1.3-2.9,2.4-4.2,3.2c-1.4,0.8-2.5,1.1-3.5,1c-1.2-0.1-2.2-0.4-3-1.1c-0.7-0.6-1.3-1.7-1.8-3.1c-0.5-1.4-0.5-3.5-0.1-6.2
			c1.6-3.8,3.1-7.4,4.5-10.7c1.3-3.4,2.5-6.3,3.4-8.9c1.1-3,2-5.7,2.8-8.3c0.4-1.1,0.7-2.1,0.9-3.1c0.2-1,0.5-2,0.7-3
			c0.5,0,1,0,1.5,0c0.5,0,0.9,0,1.3,0c2,0,3.8,0.1,5.3,0.2c1.5,0.1,2.8,0.3,3.9,0.4c1.1,0.1,2.1,0.3,2.8,0.5
			c0.8,0.2,1.5,0.3,2.1,0.4c0.6,0.1,1.2,0,1.7-0.4c0.5-0.4,0.9-0.8,1.1-1.4c0.2-0.5,0.3-1.1,0.3-1.6c0-0.5-0.3-0.8-0.7-0.9
			c-0.4-0.1-1.1-0.4-2-0.7c-0.9-0.3-2.1-0.7-3.5-1c-1.5-0.3-3.2-0.7-5.3-0.9c-2.1-0.3-4.4-0.4-7.1-0.4c0.6-3.2,1-5.9,1-8
			c0.1-2.1-0.1-3.4-0.4-3.9c-0.3-0.4-0.8-0.6-1.5-0.7c-0.7-0.1-1.4-0.1-2.2,0c-0.8,0.1-1.5,0.3-2.1,0.5c-0.7,0.2-1.1,0.5-1.3,0.8
			c-0.6,0.9-1.3,2.5-2.1,4.7c-0.8,2.2-1.6,4.9-2.4,7.9c-1.1,0.2-2.2,0.3-3.3,0.5c-1.1,0.1-2.3,0.2-3.5,0.3c-1.6,0.1-3.2,0-4.6,0
			s-2.7-0.2-3.9-0.3c-0.4,0-0.8,0.2-1.3,0.5c-0.5,0.3-0.9,0.8-1.2,1.2c-0.3,0.5-0.5,0.9-0.6,1.4c-0.1,0.5,0.2,0.8,0.7,1.1
			c0.9,0.4,2.2,0.9,4,1.4s3.7,0.7,5.7,0.7c0.9,0,1.9-0.1,2.9-0.2c1.1-0.1,2.1-0.3,3.2-0.4c-0.9,3.7-1.7,7.5-2.5,11.4
			c-0.8,4-1.5,7.7-2.1,11.1c-0.1,0.8-0.3,1.6-0.4,2.4c0,0-0.1,0.1-0.1,0.1c-1.3,1.5-2.9,3.3-4.8,5.4c-1.9,2.1-4,4.1-6.3,6
			c-2.2,1.9-4.5,3.6-6.9,4.9c-2.3,1.4-4.6,2-6.7,2c-1,0-2-0.1-3-0.4c-1-0.3-1.8-0.8-2.6-1.4c-0.8-0.7-1.4-1.5-1.9-2.6
			c-0.5-1.1-0.8-2.4-0.9-4c0.9-0.7,2.1-1.5,3.3-2.3c1.3-0.9,2.6-1.8,4-2.7c1.3-0.9,2.6-1.9,4-2.9c1.4-1.1,2.8-2.3,4-3.6
			c1.3-1.3,2.4-2.8,3.3-4.5c0.9-1.6,1.5-3.4,1.7-5.4c0.1-1.8-0.3-3.3-1.4-4.5c-1.1-1.2-2.8-1.8-5.2-1.8c-2.5,0-5,0.8-7.5,2.4
			c-2.5,1.6-4.7,3.6-6.7,6c-2,2.4-3.7,5-5,7.9c-1.4,2.9-2.2,5.6-2.4,8.2c-0.3,3.2-0.1,5.8,0.7,8.1c0.8,2.2,1.8,4,3.2,5.4
			c1.3,1.4,2.8,2.4,4.4,3.1s3.1,1,4.5,1c2.7,0,5.4-0.6,8.2-1.9c2.8-1.3,5.6-2.9,8.3-5c2.7-2.1,5.2-4.4,7.6-7
			c1.1-1.2,2.2-2.5,3.2-3.8c-0.4,2.6-0.6,4.4-0.7,5.4c-0.1,1.2,0,2.5,0.3,3.9c0.3,1.4,0.9,2.7,1.7,3.9c0.8,1.2,1.9,2.2,3.3,3
			c1.4,0.8,3.1,1.2,5.2,1.2c1.5,0,3.3-0.8,5.4-2.4c2.1-1.6,4.4-3.6,6.6-6c2.3-2.4,4.4-5,6.5-7.8c0.5-0.7,1-1.4,1.5-2.1
			c0,0,0.1-0.1,0.1-0.1c0.3-0.4,0.9-1.1,1.7-2.1c0.8-1,1.7-2.2,2.6-3.4c0.9-1.2,1.8-2.4,2.6-3.6c0.8-1.1,1.3-2,1.7-2.5
			c0.1,0.3,0.3,0.7,0.5,1.4c0.2,0.7,0.5,1.3,0.7,2c0.3,0.8,0.6,1.7,0.9,2.7c0.4,1.3,1,2.7,1.6,4.2c0.6,1.5,1.2,3,1.8,4.5
			c0.5,1.5,0.9,2.9,1.2,4.2c0.3,1.3,0.3,2.3,0,3c-0.3,0.7-0.6,1.3-1.2,1.7c-0.5,0.4-1.1,0.8-1.7,1c-0.6,0.3-1.2,0.4-1.8,0.4
			c-0.6,0-1.1-0.1-1.5-0.4c-0.3-0.3-0.7-0.7-1-1.4c-0.3-0.6-0.7-1.5-1.2-2.6c-0.5-1.1-1.1-2.6-1.7-4.6c-0.8,0.3-1.4,0.5-2,0.7
			c-0.6,0.2-1,0.4-1.3,0.6c-0.4,0.3-0.7,0.5-0.9,0.7c-0.6,0.6-1.1,1.1-1.4,1.5c-0.3,0.4-0.7,1-1,1.8c-0.3,0.6-0.3,1.4,0.1,2.5
			c0.4,1.1,1,2.2,1.9,3.3c0.9,1.1,1.9,2.1,3.1,2.9c1.2,0.8,2.5,1.2,3.8,1.2c1.9,0,3.7-0.5,5.5-1.5c1.7-1,3.3-2.2,4.6-3.7
			c1.4-1.4,2.5-2.9,3.4-4.4c0.9-1.5,1.5-2.8,1.7-3.9c0.1-0.7,0-1.5-0.3-2.6C266.8,70.9,266.4,69.8,265.9,68.6z M185.2,60
			c0.9-2.1,1.8-3.8,2.8-5.2c1-1.4,2-2.5,3.1-3.3c1-0.8,1.9-1.1,2.7-1.1c0.7,0,1.2,0.3,1.6,0.8c0.4,0.5,0.5,1.4,0.4,2.6
			c-0.1,1.1-0.7,2.5-1.8,4.1c-1.1,1.6-3,3.4-5.7,5.5c-0.9,0.7-1.8,1.3-2.7,1.9c-0.9,0.6-1.7,1.2-2.5,1.8
			C183.6,64.4,184.3,62.1,185.2,60z"/>
		<path class="st0" d="M378.3,33.3c-0.4-0.1-1.1-0.4-2-0.7c-0.9-0.3-2.1-0.7-3.5-1c-1.5-0.3-3.2-0.7-5.3-0.9
			c-2.1-0.3-4.4-0.4-7.1-0.4c0.6-3.2,1-5.9,1-8c0.1-2.1-0.1-3.4-0.4-3.9c-0.3-0.4-0.8-0.6-1.5-0.7c-0.7-0.1-1.4-0.1-2.2,0
			c-0.8,0.1-1.5,0.3-2.1,0.5c-0.7,0.2-1.1,0.5-1.3,0.8c-0.6,0.9-1.3,2.5-2.1,4.7c-0.8,2.2-1.6,4.9-2.4,7.9c-1.1,0.2-2.2,0.3-3.3,0.5
			c-1.1,0.1-2.3,0.2-3.5,0.3c-1.6,0.1-3.2,0-4.6,0c-1.4-0.1-2.7-0.2-3.9-0.3c-0.4,0-0.8,0.2-1.3,0.5c-0.5,0.3-0.9,0.8-1.2,1.2
			c-0.3,0.5-0.5,0.9-0.6,1.4c-0.1,0.5,0.2,0.8,0.7,1.1c0.9,0.4,2.2,0.9,4,1.4s3.7,0.7,5.7,0.7c0.9,0,1.9-0.1,2.9-0.2
			c1.1-0.1,2.1-0.3,3.2-0.4c-0.9,3.7-1.7,7.5-2.5,11.4c-0.8,4-1.5,7.7-2.1,11.1c-0.1,0.8-0.3,1.6-0.4,2.4c0,0-0.1,0.1-0.1,0.1
			c-1.3,1.5-2.9,3.3-4.8,5.4c-1.9,2.1-4,4.1-6.3,6c-2.2,1.9-4.5,3.6-6.9,4.9c-2.3,1.4-4.6,2-6.7,2c-1,0-2-0.1-3-0.4
			c-1-0.3-1.8-0.8-2.6-1.4c-0.8-0.7-1.4-1.5-1.9-2.6c-0.5-1.1-0.8-2.4-0.9-4c0.9-0.7,2.1-1.5,3.3-2.3c1.3-0.9,2.6-1.8,4-2.7
			c1.3-0.9,2.6-1.9,4-2.9c1.4-1.1,2.8-2.3,4-3.6c1.3-1.3,2.4-2.8,3.3-4.5c0.9-1.6,1.5-3.4,1.7-5.4c0.1-1.8-0.3-3.3-1.4-4.5
			c-1.1-1.2-2.8-1.8-5.2-1.8c-2.5,0-5,0.8-7.5,2.4c-2.5,1.6-4.7,3.6-6.7,6c-2,2.4-3.7,5-5,7.9c-1.4,2.9-2.2,5.6-2.4,8.2
			c-0.3,3.2-0.1,5.8,0.7,8.1c0.8,2.2,1.8,4,3.2,5.4c1.3,1.4,2.8,2.4,4.4,3.1s3.1,1,4.5,1c2.7,0,5.4-0.6,8.2-1.9
			c2.8-1.3,5.6-2.9,8.3-5c2.7-2.1,5.2-4.4,7.6-7c1.1-1.2,2.2-2.5,3.2-3.8c-0.4,2.6-0.6,4.4-0.7,5.4c-0.1,1.2,0,2.5,0.3,3.9
			c0.3,1.4,0.9,2.7,1.7,3.9c0.8,1.2,1.9,2.2,3.3,3c1.4,0.8,3.1,1.2,5.2,1.2c1.5,0,3.3-0.8,5.4-2.4c2.1-1.6,4.4-3.6,6.6-6
			c2.3-2.4,4.4-5,6.5-7.8c2.1-2.8,3.7-5.4,5-7.8c0.4-0.8,0.6-1.4,0.5-1.8c0-0.4-0.2-0.8-0.4-0.9c-0.3-0.2-0.6-0.2-1-0.1
			c-0.4,0.1-0.7,0.3-1,0.7c-0.4,0.5-1,1.4-2,2.6c-0.9,1.2-2.1,2.6-3.3,4.1c-1.3,1.5-2.6,3.1-4.1,4.6c-1.5,1.6-3,3-4.4,4.4
			c-1.5,1.3-2.9,2.4-4.2,3.2c-1.4,0.8-2.5,1.1-3.5,1c-1.2-0.1-2.2-0.4-3-1.1c-0.7-0.6-1.3-1.7-1.8-3.1s-0.5-3.5-0.1-6.2
			c1.6-3.8,3.1-7.4,4.5-10.7c1.3-3.4,2.5-6.3,3.4-8.9c1.1-3,2-5.7,2.8-8.3c0.4-1.1,0.7-2.1,0.9-3.1c0.2-1,0.5-2,0.7-3
			c0.5,0,1,0,1.5,0c0.5,0,0.9,0,1.3,0c2,0,3.8,0.1,5.3,0.2c1.5,0.1,2.8,0.3,3.9,0.4c1.1,0.1,2.1,0.3,2.8,0.5
			c0.8,0.2,1.5,0.3,2.1,0.4c0.6,0.1,1.2,0,1.7-0.4c0.5-0.4,0.9-0.8,1.1-1.4c0.2-0.5,0.3-1.1,0.3-1.6C379,33.7,378.7,33.4,378.3,33.3
			z M312,60c0.9-2.1,1.8-3.8,2.8-5.2c1-1.4,2-2.5,3.1-3.3c1-0.8,1.9-1.1,2.7-1.1c0.7,0,1.2,0.3,1.6,0.8c0.4,0.5,0.5,1.4,0.4,2.6
			c-0.1,1.1-0.7,2.5-1.8,4.1c-1.1,1.6-3,3.4-5.7,5.5c-0.9,0.7-1.8,1.3-2.7,1.9c-0.9,0.6-1.7,1.2-2.5,1.8
			C310.4,64.4,311.1,62.1,312,60z"/>
		<path class="st0" d="M528,32.9c0.4,0.4,1,0.5,1.7,0.4c0.7-0.1,1.4-0.4,2-0.8c0.7-0.4,1.3-0.9,1.8-1.6c0.5-0.7,0.9-1.3,1.1-2
			c0.2-0.6,0.3-1.4,0.2-2.2c0-0.8-0.2-1.6-0.4-2.2c-0.3-0.7-0.6-1.2-1.1-1.6c-0.5-0.4-1.1-0.6-1.8-0.4c-0.7,0.1-1.5,0.6-2.5,1.3
			c-0.9,0.7-1.7,1.6-2.4,2.7c-0.6,1-0.9,2.2-0.9,3.3C525.9,30.8,526.6,31.9,528,32.9z"/>
		<path class="st0" d="M629.6,62.6c-0.1-0.6-0.3-0.9-0.7-1.1c-0.4-0.2-0.8-0.2-1.3,0c-0.5,0.2-0.9,0.5-1.2,1c-0.4,0.5-1,1.3-1.8,2.5
			c-0.8,1.1-1.8,2.4-2.9,3.8c-1.1,1.4-2.4,2.9-3.7,4.4c-1.3,1.5-2.7,2.8-4,4.1c-1.4,1.2-2.7,2.2-4,3c-1.3,0.8-2.5,1.2-3.6,1.2
			c-1.5,0-2.3-0.3-2.7-0.8c-0.3-0.5-0.5-1.2-0.7-2c-0.1-1.3,0.3-2.7,1.1-4.3c0.9-1.6,1.8-3,2.7-4.3c1.5-2,2.7-3.9,3.7-5.6
			c1-1.7,1.4-3.4,1.2-4.9c-0.1-0.8-0.2-1.6-0.4-2.5c-0.2-0.9-0.6-1.8-1-2.6c-0.4-0.8-1-1.5-1.7-2c-0.7-0.5-1.6-0.8-2.7-0.8
			c-0.9,0-1.5,0.1-1.9,0.2c-0.4,0.1-1.1,0.2-2.1,0.2c-0.7,0-1.2-0.1-1.5-0.2c-0.3-0.2-0.6-0.3-0.8-0.4c0.7-1,1.2-2.1,1.4-3.4
			c0.3-1.3,0.3-2.3,0.2-3.1c-0.1-1.2-0.6-2.4-1.3-3.5c-0.7-1.1-2-1.7-3.7-1.7c-0.9,0-1.9,0.4-2.9,1.3c-1,0.9-1.9,1.9-2.8,3.2
			c-0.8,1.2-1.5,2.5-2,3.8c-0.5,1.3-0.7,2.4-0.6,3.2c0.1,0.9,0.3,1.6,0.6,1.8c0.3,0.3,0.7,0.7,1.4,1.4c-0.4,0.7-1,1.8-1.8,3.4
			c-0.8,1.5-1.7,3.3-2.7,5.3c-0.7,1.4-1.4,2.9-2.2,4.4c-0.1,0.2-0.3,0.4-0.4,0.6c-1.1,1.4-2.2,2.8-3.5,4.3c-1.2,1.5-2.4,2.8-3.6,4.1
			s-2.2,2.2-3.2,3c-1,0.8-1.8,1.2-2.5,1.2c-0.8,0-1.3-0.2-1.8-0.5c-0.4-0.3-0.7-0.8-0.9-1.4c-0.2-0.6-0.3-1.2-0.3-1.8
			c0-0.7,0-1.3,0-1.8c0.2-0.9,0.3-1.7,0.5-2.4c0.1-0.6,0.2-1.2,0.3-1.7s0.2-0.9,0.3-1.4c0.1-0.5,0.2-1,0.3-1.6
			c0.6-2.9,1.1-5.3,1.5-7.1c0.4-1.8,0.7-3.3,0.9-4.4c0.2-1.1,0.3-1.8,0.3-2.2c0-0.4,0-0.7-0.1-0.8c-0.1-0.1-0.4-0.1-0.8-0.1
			c-0.3,0-0.8,0-1.4,0.1c-0.6,0.1-1.3,0.2-2.2,0.4c1.3-2,1.8-3.7,1.6-4.9c-0.3-1.2-0.9-2.2-1.8-2.8c-1.1-0.7-2.5-1.2-4.2-1.5
			c-1.5-0.1-3.3,0.4-5.5,1.5c-2.2,1.1-4.5,2.8-6.7,5.1c-2.3,2.2-4.4,4.9-6.3,8.1c-1.5,2.4-2.6,5-3.5,7.8c-1.7,1.9-3.4,3.8-5.3,5.7
			c-2,1.9-4,3.6-5.9,5c-1.9,1.4-3.5,2.1-4.8,2.1c-0.4,0-0.9-0.1-1.2-0.4c-0.4-0.3-0.7-0.8-1-1.6c-0.3-0.6-0.4-1.5-0.3-2.8
			c0.1-1.2,0.4-2.5,0.7-3.8c0.3-1.4,0.7-2.8,1.2-4.2c0.4-1.4,0.8-2.7,1.1-3.8c0.3-1.1,0.8-2.6,1.4-4.4c0.6-1.8,1.2-3.6,1.8-5.3
			c0.6-1.7,1-3.2,1.4-4.5c0.4-1.3,0.5-1.9,0.5-2c-0.1-0.1-0.6-0.1-1.4,0c-0.8,0-1.7,0.1-2.6,0.3c-0.9,0.2-1.9,0.4-2.8,0.6
			c-0.9,0.3-1.5,0.6-1.8,0.9c-1,1.3-1.9,3.2-2.7,5.8c-0.5,1.7-1,3.5-1.4,5.4c-0.6,0.4-1.2,0.8-2,1.2c-1.3,0.7-2.8,1.3-4.6,1.8
			c-1.7,0.5-3.7,0.8-5.8,0.8c-0.5,0-0.9-0.1-1.3-0.2c-0.4-0.1-0.7-0.3-1-0.4c1.6-2.7,3-5.2,4-7.5c1-2.3,1.6-4.1,1.8-5.5
			c0.1-0.9,0-1.8-0.4-2.6c-0.4-0.9-1.4-1.3-3.1-1.3c-0.8,0-1.8,0.3-2.8,1c-1,0.7-2.1,1.6-3,2.8c-1,1.2-1.8,2.7-2.6,4.4
			c-0.8,1.7-1.2,3.7-1.4,5.8c-0.1,1.4,0.1,2.6,0.5,3.6c-1.1,2-2.2,3.9-3.5,5.7c-1.2,1.8-2.4,3.4-3.5,4.8c-1.1,1.4-2.1,2.5-2.9,3.4
			c-0.9,0.9-1.4,1.3-1.8,1.3c-0.3,0-0.6-0.3-1-0.9c-0.4-0.6-0.9-1.6-1.2-2.8c-0.4-1.2-0.7-2.8-0.9-4.6s-0.2-3.9,0-6.3
			c0.1-1.4,0.3-2.8,0.6-4.4s0.6-3,0.9-4.4c0.3-1.4,0.6-2.6,0.9-3.7c0.3-1.1,0.5-1.9,0.6-2.5c0.2-0.6,0.2-1.1-0.1-1.4
			c-0.3-0.3-0.6-0.5-1.1-0.6s-1-0.1-1.6,0c-0.6,0.1-1.1,0.2-1.5,0.3c-1,0.3-1.8,0.6-2.5,0.9s-1.2,1-1.7,1.8c-0.5,0.8-0.9,2-1.2,3.5
			c-0.3,1.5-0.6,3.5-0.9,5.9c-0.2,2.1-0.2,4.4-0.1,7c-0.3,0.4-0.6,0.7-0.8,1.1c-1.1,1.4-2.2,2.8-3.5,4.3c-1.2,1.5-2.4,2.8-3.6,4.1
			c-1.1,1.2-2.2,2.2-3.2,3c-1,0.8-1.8,1.2-2.5,1.2c-0.8,0-1.3-0.2-1.8-0.5c-0.4-0.3-0.7-0.8-0.9-1.4s-0.3-1.2-0.3-1.8
			c0-0.7,0-1.3,0-1.8c0.2-0.9,0.3-1.7,0.5-2.4c0.1-0.6,0.2-1.2,0.3-1.7s0.2-0.9,0.3-1.4c0.1-0.5,0.2-1,0.3-1.6
			c0.6-2.9,1.1-5.3,1.5-7.1c0.4-1.8,0.7-3.3,0.9-4.4c0.2-1.1,0.3-1.8,0.3-2.2c0-0.4,0-0.7-0.1-0.8c-0.1-0.1-0.4-0.1-0.8-0.1
			c-0.3,0-0.8,0-1.4,0.1c-0.6,0.1-1.3,0.2-2.2,0.4c1.3-2,1.8-3.7,1.6-4.9c-0.3-1.2-0.9-2.2-1.8-2.8c-1.1-0.7-2.5-1.2-4.2-1.5
			c-1.5-0.1-3.3,0.4-5.5,1.5c-2.2,1.1-4.5,2.8-6.7,5.1c-2.3,2.2-4.4,4.9-6.3,8.1c-1.6,2.6-2.8,5.4-3.7,8.4c-1.7,2-3.6,3.9-5.6,5.8
			c-2.2,2.1-4.6,3.9-6.9,5.5c-2.4,1.5-4.5,2.3-6.5,2.3c-1.1,0-2.2-0.2-3.3-0.5c-1.1-0.3-2.2-0.9-3.1-1.6c-0.9-0.8-1.7-1.8-2.4-3.1
			c-0.6-1.3-0.9-3-0.9-5.1c0.1-3.6,0.7-6.8,1.9-9.5c1.2-2.7,2.6-5,4.1-6.8c1.5-1.8,3.1-3.2,4.6-4.1c1.5-0.9,2.5-1.4,3.1-1.4
			c0.6,0,1,0.2,1.2,0.5c0.3,0.3,0.4,0.7,0.4,1.1c0,0.4-0.1,0.9-0.3,1.2c-0.2,0.4-0.5,0.7-0.9,0.9c-0.5,0.3-0.9,0.5-1.3,0.7
			s-0.7,0.5-1,0.9c-0.1,0.3-0.2,0.8-0.3,1.5s-0.1,1.5,0,2.3c0.1,0.8,0.3,1.5,0.8,2.1c0.4,0.6,1,0.9,1.8,0.9c1,0,1.9-0.3,2.8-0.8
			c0.9-0.5,1.6-1.2,2.2-2c0.6-0.9,1.1-1.8,1.5-2.9c0.4-1.1,0.6-2.2,0.6-3.4c0.1-2.4-0.6-4.3-2-5.7c-1.4-1.4-3.1-2.1-5.2-2.1
			c-3.6,0-6.7,1-9.4,2.9c-2.7,1.9-4.9,4.2-6.6,6.9c-1.7,2.7-3.1,5.5-3.9,8.4c-0.9,2.9-1.3,5.3-1.3,7.3c0,2,0.2,3.9,0.7,5.9
			c0.4,2,1.2,3.8,2.3,5.5c1.1,1.6,2.6,3,4.5,4c1.9,1,4.2,1.6,7,1.6c2,0,4.1-0.5,6.2-1.4c2.1-0.9,4.1-2.1,6.1-3.5
			c2-1.4,3.8-3,5.6-4.7c0.9-0.8,1.7-1.7,2.5-2.5c0,0.8-0.1,1.6,0,2.3c0.2,2.1,0.6,3.7,1.3,5c0.7,1.3,1.5,2.2,2.6,2.8
			c1,0.6,2,0.9,2.8,0.9c1.9-0.1,3.8-0.5,5.7-1.2c1.6-0.6,3.4-1.6,5.2-3c1.8-1.4,3.5-3.3,5-5.8c-0.1,1.7,0,3.1,0.3,4.3
			s0.6,2.1,0.9,2.8c0.4,0.8,0.9,1.5,1.4,1.9c0.6,0.4,1.2,0.6,2,0.8c0.8,0.2,1.6,0.2,2.4,0.1c0.9-0.1,1.7-0.2,2.5-0.5
			c0.8-0.3,1.5-0.6,2.2-0.9c0.9-0.6,2.1-1.7,3.6-3.3c1.4-1.5,2.9-3.3,4.4-5.1c1-1.2,1.9-2.4,2.8-3.6c0.2,1.7,0.5,3.2,0.9,4.8
			c0.7,2.8,1.6,5.1,2.8,6.9s2.8,2.8,4.8,2.8c0.8,0,1.9-0.6,3.3-1.7c1.4-1.1,2.8-2.6,4.5-4.4s3.3-3.8,5-6.1c1.7-2.3,3.4-4.6,5.1-7
			c0.6,0.2,1.2,0.3,1.8,0.4c0.6,0.1,1,0.1,1.4,0.1c4.4,0,8.2-0.9,11.4-2.6c0.7-0.4,1.3-0.8,2-1.2c-0.4,2.3-0.6,4.6-0.8,6.9
			c-0.2,2.8-0.2,4.9,0,6.5c0.1,1.1,0.4,2.1,0.9,3.1c0.6,1,1.3,1.8,2.1,2.6c0.9,0.7,1.8,1.3,2.8,1.7c1,0.4,2.1,0.6,3.2,0.5
			c1.3-0.1,3.1-0.9,5.2-2.5c2.1-1.6,4.3-3.5,6.5-5.7c0.8-0.8,1.6-1.7,2.3-2.5c0,0.8,0,1.5,0,2.2c0.2,2.1,0.6,3.7,1.3,5
			c0.7,1.3,1.5,2.2,2.6,2.8c1,0.6,2,0.9,2.8,0.9c1.9-0.1,3.8-0.5,5.7-1.2c1.6-0.6,3.4-1.6,5.2-3c1.8-1.4,3.5-3.3,5-5.8
			c-0.1,1.7,0,3.1,0.3,4.3c0.3,1.1,0.6,2.1,0.9,2.8c0.4,0.8,0.9,1.5,1.4,1.9c0.6,0.4,1.2,0.6,2,0.8c0.8,0.2,1.6,0.2,2.4,0.1
			c0.9-0.1,1.7-0.2,2.5-0.5c0.8-0.3,1.5-0.6,2.2-0.9c0.8-0.5,1.7-1.3,2.7-2.4c-0.1,0.3-0.3,0.5-0.3,0.7c-0.4,0.8-0.5,1.4-0.4,1.9
			c0.1,0.5,0.4,0.8,0.8,1c0.4,0.2,0.9,0.1,1.4-0.1c0.5-0.2,1-0.7,1.5-1.4c0.2-0.3,0.7-1,1.5-2.3c0.8-1.3,1.8-2.9,2.9-4.7
			c1.1-1.9,2.4-3.9,3.7-6c1.3-2.1,2.5-4.2,3.7-6.2c1.2-2,2.2-3.7,3.1-5.1c0.9-1.5,1.5-2.4,1.7-2.8c0.5,0.1,1,0.3,1.6,0.6
			c0.6,0.3,1.3,0.4,2.1,0.4c0.6,0,1,0,1.3,0c0.3,0,0.5,0,0.7,0c0.2,0,0.3,0,0.5,0c0.2,0,0.4,0,0.8,0c0.6,0,1,0.2,1.2,0.7
			c0.3,0.4,0.4,0.9,0.4,1.5c0,0.9-0.3,2-1,3.3c-0.7,1.3-1.5,2.9-2.6,4.7c-0.4,0.9-0.9,1.8-1.5,2.7c-0.5,0.9-1,1.8-1.5,2.8
			c-0.5,0.9-0.9,1.8-1.2,2.7c-0.3,0.9-0.6,1.7-0.6,2.4c-0.1,0.9,0,2,0.3,3.1c0.3,1.1,0.8,2.1,1.4,3c0.7,0.9,1.5,1.7,2.6,2.3
			c1.1,0.6,2.4,0.9,4.1,0.9c1.6,0,3.2-0.5,5-1.4c1.7-0.9,3.5-2.2,5.2-3.7c1.7-1.5,3.4-3.1,5-4.9c1.6-1.8,3-3.6,4.3-5.3
			c1.3-1.7,2.4-3.3,3.3-4.6c0.9-1.4,1.6-2.4,1.9-3C629.5,63.9,629.7,63.2,629.6,62.6z M453.8,56.7c-0.2,1-0.4,2.4-0.7,3.9
			c-0.3,1.6-0.7,3.2-1.1,4.9c-0.4,1.7-0.8,3.2-1.1,4.5c-0.1,0.3-0.3,0.8-0.8,1.5c-0.5,0.7-1.1,1.5-1.8,2.3c-0.7,0.8-1.5,1.6-2.5,2.4
			c-0.9,0.8-1.8,1.4-2.8,1.8c-0.9,0.5-1.8,0.7-2.7,0.8c-0.9,0-1.7-0.3-2.4-1c-0.4-0.4-0.6-1.2-0.8-2.4c-0.1-1.2-0.1-2.7,0.1-4.3
			c0.2-1.6,0.6-3.4,1.2-5.3c0.6-1.9,1.3-3.6,2.3-5.3c2.3-4,4.3-6.7,6-8.2c1.7-1.5,3-1.9,3.7-1.4c0.2,0.3,0.3,0.6,0.4,1
			c0.1,0.4,0,0.9,0,1.6c-0.1,0.7-0.4,1.5-0.9,2.5c0.5-0.1,1-0.2,1.5-0.3c0.5-0.1,0.9-0.2,1.2-0.3c0.4-0.1,0.7-0.2,1-0.3
			C453.9,55.1,453.9,55.6,453.8,56.7z M564.3,56.7c-0.2,1-0.4,2.4-0.7,3.9c-0.3,1.6-0.7,3.2-1.1,4.9c-0.4,1.7-0.8,3.2-1.1,4.5
			c-0.1,0.3-0.3,0.8-0.8,1.5c-0.5,0.7-1.1,1.5-1.8,2.3c-0.7,0.8-1.5,1.6-2.5,2.4c-0.9,0.8-1.8,1.4-2.8,1.8c-0.9,0.5-1.8,0.7-2.7,0.8
			c-0.9,0-1.7-0.3-2.4-1c-0.4-0.4-0.6-1.2-0.8-2.4c-0.1-1.2-0.1-2.7,0.1-4.3c0.2-1.6,0.6-3.4,1.2-5.3c0.6-1.9,1.3-3.6,2.3-5.3
			c2.3-4,4.3-6.7,6-8.2c1.7-1.5,3-1.9,3.7-1.4c0.2,0.3,0.3,0.6,0.4,1c0.1,0.4,0,0.9,0,1.6c-0.1,0.7-0.4,1.5-0.9,2.5
			c0.5-0.1,1-0.2,1.5-0.3c0.5-0.1,0.9-0.2,1.2-0.3c0.4-0.1,0.7-0.2,1-0.3C564.4,55.1,564.4,55.6,564.3,56.7z"/>
	</g>
</g>
</svg>
